<?xml version="1.0" standalone="no"?>
<!DOCTYPE svg PUBLIC "-//W3C//DTD SVG 20010904//EN"
 "http://www.w3.org/TR/2001/REC-SVG-20010904/DTD/svg10.dtd">
<svg version="1.0" xmlns="http://www.w3.org/2000/svg"
 width="1280.000000pt" height="954.000000pt" viewBox="0 0 1280.000000 954.000000"
 preserveAspectRatio="xMidYMid meet">
<metadata>
Created by potrace 1.15, written by Peter Selinger 2001-2017
</metadata>
<g transform="translate(0.000000,954.000000) scale(0.100000,-0.100000)"
fill="#000000" stroke="none">
<path d="M4054 9526 c-214 -35 -420 -138 -659 -329 -297 -239 -484 -545 -815
-1338 l-52 -127 -110 -22 c-171 -34 -302 -76 -428 -137 -113 -55 -117 -58
-276 -217 -183 -183 -324 -346 -414 -476 -103 -151 -126 -223 -136 -425 -3
-68 -16 -168 -30 -230 -39 -177 -46 -240 -46 -415 0 -244 47 -555 118 -788 22
-74 31 -89 84 -142 l60 -58 -168 0 c-226 0 -353 -28 -489 -108 -53 -31 -79
-81 -124 -236 -126 -436 -347 -1738 -498 -2937 -60 -471 -78 -688 -62 -741 38
-128 267 -264 669 -399 611 -205 1587 -393 2042 -395 185 0 285 13 640 84 416
83 1482 339 1505 361 6 6 12 104 15 232 l5 222 1543 3 1542 2 0 -122 c0 -68 3
-134 7 -147 9 -35 216 -167 418 -266 425 -208 703 -261 1240 -236 357 17 907
72 1235 126 273 44 816 186 1162 305 431 147 676 288 744 426 26 53 27 59 20
167 -19 315 -130 1186 -252 1967 -129 827 -248 1397 -322 1534 -24 45 -36 55
-108 91 -94 48 -193 74 -324 85 -103 9 -302 -1 -439 -24 -71 -11 -81 -11 -66
0 10 8 24 14 31 14 28 0 97 96 153 212 123 257 213 574 262 933 29 206 32 541
6 680 -50 274 -165 514 -359 752 -120 147 -306 257 -572 337 -410 124 -845
143 -1206 51 -314 -79 -609 -240 -717 -392 -70 -99 -103 -264 -103 -521 0
-198 -2 -191 109 -360 34 -51 61 -97 61 -102 0 -9 -46 -8 -407 6 l-143 6 0 37
c0 20 9 171 20 336 11 165 20 303 20 308 0 4 8 7 18 7 62 1 151 76 201 170 23
43 57 82 124 141 51 45 95 91 98 104 23 81 44 422 44 705 0 333 -8 393 -60
504 -130 275 -617 592 -995 647 -155 22 -705 -4 -955 -47 -223 -37 -331 -84
-400 -172 -125 -158 -186 -379 -155 -562 16 -99 60 -218 109 -296 l40 -64 -24
-107 c-13 -60 -30 -148 -37 -198 -16 -115 -16 -467 0 -605 52 -427 184 -764
381 -969 29 -29 51 -55 49 -56 -2 -2 -68 -15 -148 -30 -270 -49 -443 -96 -542
-146 -89 -45 -130 -131 -168 -354 -46 -269 -61 -505 -69 -1045 l-6 -455 -72
107 c-51 76 -79 131 -96 185 -57 180 -130 544 -232 1153 -25 151 -53 307 -61
345 -42 189 -135 241 -392 217 -70 -7 -145 -15 -167 -19 l-40 -6 65 48 c93 68
254 235 333 345 85 120 196 342 242 485 48 148 101 415 116 587 l13 141 42 44
c206 211 167 641 -90 988 -225 304 -625 530 -1081 610 -124 22 -369 28 -471
11z"/>
</g>
</svg>
